<?xml version="1.0" encoding="utf-8"?>
<!-- Generator: Adobe Illustrator 16.0.0, SVG Export Plug-In . SVG Version: 6.00 Build 0)  -->
<!DOCTYPE svg PUBLIC "-//W3C//DTD SVG 1.1//EN" "http://www.w3.org/Graphics/SVG/1.1/DTD/svg11.dtd">
<svg version="1.1" id="Capa_1" xmlns="http://www.w3.org/2000/svg" xmlns:xlink="http://www.w3.org/1999/xlink" x="0px" y="0px"
	 width="292.317px" height="292.317px" viewBox="0 0 292.317 292.317" enable-background="new 0 0 292.317 292.317"
	 xml:space="preserve">
<g transform="matrix(1.01619,0,0,1.01619,44,43.8384)">
	<path d="M100.531-43.139c-39.062,0-43.96,0.165-59.301,0.865c-15.31,0.699-25.765,3.13-34.914,6.686
		c-9.458,3.676-17.479,8.594-25.475,16.59c-7.996,7.996-12.914,16.017-16.59,25.475c-3.556,9.149-5.986,19.604-6.685,34.913
		c-0.701,15.341-0.866,20.239-0.866,59.301c0,39.06,0.165,43.96,0.866,59.301c0.699,15.309,3.129,25.765,6.685,34.913
		c3.676,9.456,8.594,17.479,16.59,25.474c7.997,7.996,16.017,12.914,25.475,16.589c9.15,3.556,19.604,5.987,34.914,6.687
		c15.341,0.7,20.239,0.865,59.301,0.865c39.061,0,43.959-0.165,59.3-0.865c15.31-0.7,25.765-3.131,34.913-6.687
		c9.458-3.675,17.48-8.593,25.476-16.589c7.996-7.996,12.914-16.018,16.589-25.474c3.556-9.149,5.987-19.604,6.686-34.913
		c0.701-15.341,0.866-20.241,0.866-59.301c0-39.061-0.165-43.96-0.866-59.301c-0.699-15.309-3.13-25.765-6.686-34.913
		c-3.675-9.458-8.593-17.479-16.589-25.475c-7.997-7.996-16.018-12.914-25.476-16.59c-9.149-3.556-19.604-5.987-34.913-6.686
		C144.49-42.974,139.592-43.139,100.531-43.139z M100.531-17.224c38.404,0,42.953,0.146,58.12,0.838
		c14.023,0.64,21.638,2.983,26.706,4.953c6.714,2.609,11.505,5.726,16.538,10.759c5.033,5.033,8.15,9.825,10.759,16.538
		c1.969,5.068,4.312,12.684,4.952,26.707c0.692,15.167,0.839,19.715,0.839,58.12c0,38.403-0.147,42.953-0.839,58.119
		c-0.64,14.023-2.983,21.638-4.952,26.706c-2.609,6.714-5.727,11.505-10.759,16.539c-5.033,5.034-9.824,8.149-16.538,10.759
		c-5.068,1.97-12.683,4.313-26.706,4.951c-15.165,0.692-19.713,0.84-58.12,0.84c-38.407,0-42.955-0.148-58.12-0.84
		c-14.024-0.638-21.639-2.981-26.707-4.951c-6.714-2.61-11.505-5.726-16.538-10.759c-5.033-5.034-8.15-9.825-10.759-16.539
		c-1.969-5.068-4.313-12.683-4.953-26.706c-0.692-15.167-0.838-19.716-0.838-58.119c0-38.404,0.146-42.953,0.838-58.12
		c0.64-14.023,2.984-21.639,4.953-26.707C-8.984,9.151-5.866,4.359-0.834-0.674c5.033-5.033,9.824-8.15,16.538-10.759
		c5.068-1.97,12.683-4.313,26.707-4.953C57.577-17.078,62.126-17.224,100.531-17.224z"/>
	<path d="M100.531,148.632c-26.479,0-47.944-21.465-47.944-47.942c0-26.478,21.465-47.943,47.944-47.943
		c26.478,0,47.943,21.465,47.943,47.943C148.474,127.167,127.009,148.632,100.531,148.632z M100.531,26.832
		c-40.792,0-73.859,33.068-73.859,73.858c0,40.79,33.067,73.858,73.859,73.858c40.791,0,73.858-33.068,73.858-73.858
		C174.389,59.899,141.322,26.832,100.531,26.832z"/>
	<path d="M194.567,23.914c0,9.533-7.728,17.26-17.26,17.26c-9.532,0-17.26-7.727-17.26-17.26c0-9.532,7.727-17.259,17.26-17.259
		C186.839,6.654,194.567,14.381,194.567,23.914z"/>
</g>
</svg>
