<?xml version="1.0" encoding="utf-8"?>
<!-- Generator: Adobe Illustrator 16.0.0, SVG Export Plug-In . SVG Version: 6.00 Build 0)  -->
<!DOCTYPE svg PUBLIC "-//W3C//DTD SVG 1.1//EN" "http://www.w3.org/Graphics/SVG/1.1/DTD/svg11.dtd">
<svg version="1.1" id="Capa_1" xmlns="http://www.w3.org/2000/svg" xmlns:xlink="http://www.w3.org/1999/xlink" x="0px" y="0px"
	 width="420.01px" height="401.44px" viewBox="0 0 420.01 401.44" enable-background="new 0 0 420.01 401.44" xml:space="preserve">
<path fill="#FFFFFF" d="M6.326,130.85h90.011v270.871H6.326V130.85z M51.935,0.278C21.127,0.278,1,20.503,1,47.049
	c0,26,19.538,46.813,49.756,46.813h0.574c31.396,0,50.948-20.813,50.948-46.813C101.689,20.503,82.728,0.278,51.935,0.278z
	 M317.34,124.486c-47.779,0-69.185,26.28-81.126,44.71V130.85h-90.038c1.192,25.411,0,270.871,0,270.871h90.038V250.447
	c0-8.103,0.59-16.175,2.958-21.978c6.52-16.175,21.333-32.923,46.183-32.923c32.602,0,45.622,24.851,45.622,61.248V401.72H421
	V246.397C421,163.199,376.599,124.486,317.34,124.486z"/>
</svg>
