<svg width="46" height="36" viewBox="0 0 46 36" fill="none" xmlns="http://www.w3.org/2000/svg">
<path d="M43.6759 0.00146484C43.6759 0.846048 43.6785 1.66112 43.6698 2.4762C43.6695 2.5255 43.5868 2.59315 43.5276 2.61978C42.6857 3.00123 41.8157 3.32978 41.002 3.76268C37.0168 5.88224 34.25 9.07344 32.7056 13.3032C32.141 14.8495 31.8901 16.4577 31.9554 18.1051C31.9681 18.4283 32.0637 18.7518 32.1507 19.067C32.1868 19.1984 32.2897 19.3178 32.3825 19.4254C32.5312 19.5985 32.7287 19.6475 32.9377 19.5528C33.1283 19.4668 33.3193 19.3722 33.489 19.2516C34.4691 18.5539 35.5695 18.1998 36.7568 18.072C37.7471 17.9655 38.7254 17.9986 39.6882 18.2721C40.8774 18.61 41.8886 19.2491 42.7781 20.0926C43.9734 21.2258 44.8518 22.5594 45.22 24.1719C45.9229 27.2516 45.1868 29.9638 43.0243 32.2802C41.7088 33.6891 40.129 34.6592 38.2178 35.0087C35.2922 35.543 32.6244 34.932 30.2774 33.0827C27.9702 31.2647 26.5525 28.8868 25.8959 26.0439C25.6045 24.7833 25.4735 23.5051 25.4489 22.2125C25.3908 19.1167 25.9461 16.1432 27.2349 13.319C28.5403 10.4593 30.3987 8.01187 32.7973 5.97256C35.0901 4.02322 37.6662 2.52982 40.4099 1.31458C41.4196 0.867279 42.455 0.478275 43.4792 0.06372C43.5334 0.0417688 43.5908 0.0280942 43.6759 0.00146484Z" fill="#EDAE6F"/>
<path d="M18.2424 0C18.2424 0.0906838 18.2424 0.15006 18.2424 0.209077C18.2424 0.928789 18.2384 1.6485 18.2457 2.36785C18.2471 2.5154 18.2056 2.58629 18.0605 2.63991C16.5265 3.20704 15.0702 3.92927 13.7312 4.86958C10.4901 7.14531 8.25183 10.1613 7.06771 13.938C6.65255 15.2626 6.47205 16.6282 6.51284 18.0166C6.52223 18.3354 6.61284 18.6521 6.67277 18.9687C6.68577 19.0375 6.72259 19.1037 6.75616 19.1667C6.99407 19.6143 7.27349 19.7072 7.71609 19.4585C8.08721 19.2498 8.43377 18.9965 8.80886 18.7957C9.63666 18.352 10.5352 18.1443 11.4652 18.0558C12.6496 17.9432 13.8056 18.05 14.9175 18.4991C16.1615 19.0015 17.1713 19.8184 18.0381 20.8227C19.1608 22.1236 19.8233 23.6289 19.9929 25.3378C20.2345 27.7734 19.5756 29.9411 17.9973 31.8214C16.8915 33.1388 15.563 34.15 13.9164 34.7089C12.6099 35.1522 11.2677 35.2735 9.89695 35.1411C7.3067 34.891 5.2179 33.6829 3.46845 31.8171C1.77459 30.0109 0.795174 27.8558 0.33597 25.4498C-0.0503103 23.4259 -0.0907434 21.387 0.149328 19.3448C0.763044 14.1208 3.11863 9.79745 7.00995 6.28561C8.8724 4.60472 10.9825 3.28333 13.2143 2.14834C14.7792 1.35234 16.3944 0.671132 18.042 0.065134C18.0973 0.0446222 18.1543 0.0284287 18.2424 0Z" fill="#EDAE6F"/>
</svg>
