<?xml version="1.0" encoding="utf-8"?>
<!-- Generator: Adobe Illustrator 16.0.0, SVG Export Plug-In . SVG Version: 6.00 Build 0)  -->
<!DOCTYPE svg PUBLIC "-//W3C//DTD SVG 1.1//EN" "http://www.w3.org/Graphics/SVG/1.1/DTD/svg11.dtd">
<svg version="1.1" id="Capa_1" xmlns="http://www.w3.org/2000/svg" xmlns:xlink="http://www.w3.org/1999/xlink" x="0px" y="0px"
	 width="1063.134px" height="822.748px" viewBox="8.433 128.626 1063.134 822.748"
	 enable-background="new 8.433 128.626 1063.134 822.748" xml:space="preserve">
<desc>Created with Fabric.js 5.2.4</desc>
<g id="_x39_64e7056-6cfc-45ef-ad88-8706b18769e2" transform="matrix(1 0 0 1 540 540)">
	<rect x="-540" y="-540" vector-effect="non-scaling-stroke" display="none" fill="#FFFFFF" width="1080" height="1080"/>
</g>
<g id="_x30_3438b46-3ca2-4246-9fe5-998f4aabd1b7" transform="matrix(1 0 0 1 540 540)">
</g>
<g transform="matrix(18.62 0 0 18.62 540 540)">
	<g>
		<g transform="matrix(1 0 0 1 15.52 -0.33)">
			<path vector-effect="non-scaling-stroke" fill="#2B85A1" d="M10.766-21.761c0,1.06,0.003,2.084-0.008,3.107
				c0,0.062-0.104,0.147-0.179,0.18c-1.057,0.479-2.149,0.891-3.171,1.435C2.406-14.378-1.068-10.372-3.007-5.061
				C-3.716-3.12-4.031-1.101-3.949,0.968c0.016,0.406,0.136,0.812,0.245,1.208c0.045,0.165,0.174,0.315,0.291,0.45
				c0.187,0.217,0.435,0.279,0.697,0.16c0.239-0.108,0.479-0.227,0.692-0.378c1.231-0.876,2.612-1.321,4.103-1.481
				c1.243-0.134,2.472-0.092,3.68,0.251c1.493,0.424,2.762,1.227,3.879,2.286c1.501,1.423,2.603,3.097,3.066,5.122
				c0.882,3.866-0.042,7.272-2.757,10.18c-1.652,1.769-3.635,2.987-6.034,3.426c-3.673,0.671-7.023-0.096-9.969-2.418
				c-2.897-2.282-4.677-5.268-5.501-8.837c-0.366-1.583-0.53-3.187-0.561-4.81c-0.073-3.887,0.624-7.62,2.242-11.166
				c1.639-3.59,3.972-6.663,6.984-9.223c2.878-2.447,6.113-4.322,9.558-5.848c1.268-0.562,2.568-1.05,3.853-1.57
				C10.587-21.711,10.659-21.728,10.766-21.761z"/>
		</g>
		<g transform="matrix(1 0 0 1 -16.42 -0.33)">
			<path vector-effect="non-scaling-stroke" fill="#2B85A1" d="M10.775-21.763c0,0.114,0,0.188,0,0.262
				c0,0.904-0.005,1.807,0.004,2.71c0.002,0.185-0.05,0.274-0.232,0.342c-1.926,0.712-3.754,1.619-5.435,2.799
				C1.042-12.792-1.768-9.006-3.255-4.264c-0.521,1.663-0.748,3.378-0.697,5.121c0.012,0.4,0.126,0.798,0.201,1.195
				C-3.734,2.138-3.688,2.221-3.646,2.3c0.299,0.562,0.65,0.679,1.205,0.366c0.466-0.262,0.901-0.58,1.372-0.832
				c1.039-0.557,2.167-0.818,3.335-0.929C3.753,0.764,5.204,0.898,6.6,1.462c1.562,0.631,2.83,1.656,3.918,2.917
				c1.41,1.633,2.241,3.523,2.454,5.669c0.303,3.058-0.524,5.779-2.505,8.14c-1.388,1.654-3.056,2.924-5.123,3.625
				c-1.64,0.557-3.325,0.709-5.046,0.543c-3.252-0.314-5.874-1.831-8.071-4.173c-2.127-2.268-3.356-4.973-3.933-7.994
				c-0.485-2.541-0.536-5.101-0.234-7.665c0.77-6.559,3.728-11.987,8.613-16.396c2.338-2.11,4.987-3.769,7.79-5.194
				c1.965-0.999,3.993-1.855,6.061-2.615C10.593-21.707,10.664-21.727,10.775-21.763z"/>
		</g>
	</g>
</g>
</svg>
