<?xml version="1.0" encoding="utf-8"?>
<!-- Generator: Adobe Illustrator 16.0.0, SVG Export Plug-In . SVG Version: 6.00 Build 0)  -->
<!DOCTYPE svg PUBLIC "-//W3C//DTD SVG 1.1//EN" "http://www.w3.org/Graphics/SVG/1.1/DTD/svg11.dtd">
<svg version="1.1" id="tripadvisor" xmlns="http://www.w3.org/2000/svg" xmlns:xlink="http://www.w3.org/1999/xlink" x="0px"
	 y="0px" width="575.17px" height="369.001px" viewBox="122.415 0 575.17 369.001"
	 enable-background="new 122.415 0 575.17 369.001" xml:space="preserve">
<path fill="#FFFFFF" d="M553.619,162.566c-28.078-0.113-50.932,22.557-51.044,50.635c-0.113,28.078,22.557,50.932,50.635,51.044
	c28.078,0.113,50.931-22.557,51.044-50.635c0.001-0.137,0.001-0.272,0-0.409C604.142,185.283,581.537,162.679,553.619,162.566z
	 M650.789,107.626l46.33-51.045h-104.55c-53.695-36.877-117.312-56.605-182.45-56.58c-65.761-0.129-130.042,19.513-184.5,56.375
	h-102.5l45.92,50.225c-6.729,6.168-12.778,13.041-18.04,20.501c-47.46,63.471-34.48,153.398,28.991,200.858
	c55.441,41.455,132.575,37.42,183.389-9.594l46.74,50.635l45.715-50.02c57.764,54.262,148.578,51.424,202.841-6.34
	c51.039-54.332,51.978-138.696,2.159-194.15c-3.335-3.829-6.895-7.458-10.66-10.865H650.789z M266.619,309.961
	c-53.439,0-96.76-43.32-96.76-96.76s43.321-96.76,96.76-96.76c53.439,0,96.76,43.32,96.76,96.76l0,0
	C363.379,266.641,320.059,309.961,266.619,309.961z M410.119,213.201c0-69.495-46.74-120.13-107.01-143.5
	c33.473-15.572,70.106-23.152,107.01-22.141c36.68-1.219,73.131,6.227,106.395,21.73C455.15,91.251,413.125,148.096,410.119,213.201
	L410.119,213.201z M553.619,310.576c-53.439,0-96.76-43.321-96.76-96.76c0-53.439,43.32-96.76,96.76-96.76s96.76,43.32,96.76,96.76
	l0,0C650.379,267.255,607.059,310.576,553.619,310.576z M317.254,213.201c0,27.965-22.67,50.635-50.635,50.635
	s-50.635-22.67-50.635-50.635s22.67-50.635,50.635-50.635l0,0C294.584,162.566,317.254,185.236,317.254,213.201z"/>
</svg>
