<?xml version="1.0" encoding="utf-8"?>
<!-- Generator: Adobe Illustrator 16.0.0, SVG Export Plug-In . SVG Version: 6.00 Build 0)  -->
<!DOCTYPE svg PUBLIC "-//W3C//DTD SVG 1.1//EN" "http://www.w3.org/Graphics/SVG/1.1/DTD/svg11.dtd">
<svg version="1.1" id="Capa_1" xmlns:serif="http://www.serif.com/"
	 xmlns="http://www.w3.org/2000/svg" xmlns:xlink="http://www.w3.org/1999/xlink" x="0px" y="0px" width="342.57px"
	 height="278.348px" viewBox="0 32.105 342.57 278.348" enable-background="new 0 32.105 342.57 278.348" xml:space="preserve">
<path d="M107.733,310.454c129.269,0,199.974-107.098,199.974-199.973c0-3.042,0-6.07-0.206-9.084
	c13.755-9.95,25.628-22.268,35.064-36.38c-12.827,5.684-26.435,9.411-40.368,11.058c14.67-8.781,25.654-22.602,30.899-38.874
	c-13.796,8.186-28.89,13.956-44.628,17.06c-13.289-14.131-31.85-22.154-51.246-22.154c-38.593,0-70.349,31.756-70.349,70.348
	c0,5.354,0.611,10.691,1.821,15.906c-56.481-2.831-109.178-29.546-144.848-73.431c-18.549,31.932-8.951,73.313,21.759,93.82
	c-11.184-0.332-22.126-3.349-31.899-8.797v0.891c0.009,33.329,23.716,62.296,56.385,68.896c-10.346,2.821-21.205,3.233-31.734,1.205
	c9.184,28.559,35.668,48.245,65.662,48.809c-24.883,19.555-55.638,30.177-87.285,30.145c-5.592-0.01-11.179-0.349-16.73-1.014
	c32.138,20.624,69.542,31.566,107.728,31.516"/>
</svg>
