<?xml version="1.0" encoding="utf-8"?>
<!-- Generator: Adobe Illustrator 16.0.0, SVG Export Plug-In . SVG Version: 6.00 Build 0)  -->
<!DOCTYPE svg PUBLIC "-//W3C//DTD SVG 1.1//EN" "http://www.w3.org/Graphics/SVG/1.1/DTD/svg11.dtd">
<svg version="1.1" id="Capa_1" xmlns="http://www.w3.org/2000/svg" xmlns:xlink="http://www.w3.org/1999/xlink" x="0px" y="0px"
	 width="300.47px" height="301.92px" viewBox="0 0 300.47 301.92" enable-background="new 0 0 300.47 301.92" xml:space="preserve">
<path id="WhatsApp-Logo" fill="#FFFFFF" d="M219.07,180.928c-3.738-1.871-22.117-10.914-25.544-12.162
	c-3.426-1.248-5.918-1.871-8.41,1.871s-9.656,12.162-11.837,14.656c-2.181,2.496-4.361,2.809-8.099,0.936
	c-3.738-1.869-15.783-5.816-30.062-18.553c-11.112-9.912-18.615-22.154-20.795-25.896c-2.182-3.742-0.233-5.766,1.638-7.629
	c1.683-1.675,3.739-4.366,5.607-6.55c1.87-2.182,2.493-3.742,3.738-6.235c1.246-2.496,0.624-4.679-0.312-6.549
	c-0.934-1.871-8.41-20.271-11.525-27.758c-3.034-7.288-6.116-6.301-8.41-6.416c-2.178-0.108-4.674-0.131-7.165-0.131
	s-6.542,0.936-9.969,4.677c-3.426,3.742-13.083,12.786-13.083,31.186c0,18.4,13.395,36.175,15.264,38.671
	c1.869,2.494,26.359,40.252,63.859,56.443c8.918,3.854,15.882,6.152,21.311,7.875c8.954,2.846,17.104,2.443,23.545,1.48
	c7.182-1.072,22.116-9.041,25.231-17.773s3.115-16.217,2.181-17.777C225.3,183.734,222.809,182.799,219.07,180.928 M150.863,274.057
	h-0.051c-22.313-0.008-44.197-6.002-63.289-17.332l-4.541-2.695L35.92,266.375l12.562-45.885l-2.956-4.705
	c-12.447-19.799-19.022-42.68-19.013-66.177c0.028-68.56,55.811-124.337,124.399-124.337c33.214,0.011,64.435,12.962,87.912,36.467
	c23.477,23.503,36.398,54.745,36.386,87.971C275.182,218.273,219.399,274.057,150.863,274.057 M256.692,43.877
	c-28.246-28.278-65.81-43.858-105.831-43.875C68.4,0.002,1.286,67.112,1.253,149.599c-0.011,26.37,6.878,52.104,19.971,74.794
	L0,301.918l79.308-20.805c21.853,11.92,46.455,18.201,71.494,18.211h0.062c82.453,0,149.572-67.117,149.606-149.605
	C300.485,109.744,284.938,72.156,256.692,43.877"/>
</svg>
