<?xml version="1.0" encoding="utf-8"?>
<!-- Generator: Adobe Illustrator 16.0.0, SVG Export Plug-In . SVG Version: 6.00 Build 0)  -->
<!DOCTYPE svg PUBLIC "-//W3C//DTD SVG 1.1//EN" "http://www.w3.org/Graphics/SVG/1.1/DTD/svg11.dtd">
<svg version="1.1" id="Capa_1" xmlns="http://www.w3.org/2000/svg" xmlns:xlink="http://www.w3.org/1999/xlink" x="0px" y="0px"
	 width="300.471px" height="301.92px" viewBox="0 0 300.471 301.92" enable-background="new 0 0 300.471 301.92"
	 xml:space="preserve">
<path id="WhatsApp-Logo" d="M219.07,180.928c-3.738-1.87-22.117-10.913-25.544-12.161c-3.426-1.248-5.918-1.871-8.41,1.871
	c-2.492,3.741-9.656,12.161-11.837,14.655c-2.181,2.496-4.361,2.81-8.099,0.937c-3.738-1.869-15.783-5.816-30.063-18.554
	c-11.112-9.911-18.615-22.154-20.795-25.896c-2.182-3.742-0.233-5.766,1.638-7.629c1.684-1.675,3.739-4.366,5.607-6.55
	c1.87-2.182,2.493-3.742,3.738-6.235c1.246-2.496,0.624-4.679-0.313-6.549c-0.934-1.871-8.41-20.271-11.524-27.758
	c-3.034-7.288-6.116-6.301-8.41-6.416c-2.179-0.108-4.674-0.131-7.165-0.131s-6.542,0.936-9.97,4.677
	c-3.426,3.742-13.083,12.786-13.083,31.186s13.396,36.175,15.265,38.671c1.869,2.494,26.358,40.252,63.858,56.443
	c8.918,3.854,15.883,6.152,21.312,7.875c8.954,2.846,17.104,2.443,23.545,1.48c7.182-1.072,22.116-9.041,25.231-17.773
	c3.114-8.732,3.114-16.217,2.181-17.777S222.809,182.799,219.07,180.928 M150.863,274.058h-0.051
	c-22.313-0.009-44.197-6.002-63.289-17.332l-4.541-2.695L35.92,266.375l12.563-45.885l-2.956-4.705
	c-12.447-19.8-19.022-42.681-19.013-66.177c0.027-68.56,55.811-124.337,124.398-124.337c33.214,0.011,64.436,12.962,87.912,36.467
	c23.477,23.503,36.398,54.745,36.386,87.971C275.182,218.272,219.399,274.058,150.863,274.058 M256.692,43.877
	C228.446,15.599,190.882,0.019,150.861,0.002C68.4,0.002,1.286,67.112,1.253,149.599c-0.011,26.37,6.878,52.104,19.972,74.794
	L0,301.918l79.309-20.806c21.853,11.921,46.455,18.201,71.494,18.212h0.062c82.453,0,149.572-67.117,149.606-149.605
	C300.485,109.744,284.938,72.156,256.692,43.877"/>
</svg>
