<?xml version="1.0" encoding="utf-8"?>
<!-- Generator: Adobe Illustrator 16.0.0, SVG Export Plug-In . SVG Version: 6.00 Build 0)  -->
<!DOCTYPE svg PUBLIC "-//W3C//DTD SVG 1.1//EN" "http://www.w3.org/Graphics/SVG/1.1/DTD/svg11.dtd">
<svg version="1.1" xmlns="http://www.w3.org/2000/svg" xmlns:xlink="http://www.w3.org/1999/xlink" x="0px" y="0px" width="596px"
	 height="596px" viewBox="0 0 596 596" enable-background="new 0 0 596 596" xml:space="preserve">
<g id="Capa_1">
	<line fill="none" x1="-26.626" y1="520.506" x2="-26.626" y2="-129.801"/>
	<polygon fill="#00809A" points="230.534,198.32 230.534,280.495 277.421,280.495 277.421,302.714 229.893,302.714 207.697,302.714 
		207.697,280.495 207.697,198.32 	"/>
	<line fill="none" x1="-26.626" y1="520.506" x2="-26.626" y2="-129.801"/>
	<polygon fill="#00809A" points="416.514,198.32 451.277,248.781 486.042,198.32 504.288,198.32 504.288,235.022 504.288,302.714 
		483.707,302.714 482.093,302.714 482.093,242.762 451.277,287.49 420.464,242.761 420.464,302.714 418.85,302.714 398.27,302.714 
		398.27,235.022 398.27,198.32 	"/>
	<line fill="none" x1="-26.626" y1="520.506" x2="-26.626" y2="-129.801"/>
	<path fill="#00809A" d="M150.454,305.326c0.164-2.652,0.328-5.222,0.484-7.638c0.069-3.803,3.008-6.925,6.995-7.348
		c0.32-0.033,0.648-0.05,0.977-0.05c4.085,0,8.831,2.693,9.579,7.685l0.142,0.949l-0.132,0.948
		c-0.107,0.765-0.214,1.613-0.319,2.531c16.083-4.908,25.018-14.194,25.018-14.194V259.86v-17.84h-34.312v20.379h13.715v15.088
		c-9.936,5.647-17.283,6.341-24.408,6.341c-16.53,0-32.643-15.37-32.643-33.329c0-17.958,16.113-33.329,32.643-33.329
		c8.107,0,16.501,0.897,28.669,8.967l11.427-16.945c-12.785-9.104-26.388-13.538-40.096-13.562v0.001
		c-28.729,0-55.428,21-55.428,54.868c0,33.867,26.699,54.867,55.428,54.867C148.957,305.367,149.708,305.351,150.454,305.326"/>
	<line fill="none" x1="-26.626" y1="520.506" x2="-26.626" y2="-129.801"/>
	<path fill="#F6A568" d="M211.502,324.213c0.636,0.082,1.181-0.073,1.54-0.432c0.239-0.239,0.506-0.682,0.414-1.413l-0.018-0.143
		l-0.078-0.117c-0.45-0.675-1.589-1.853-2.712-2.35l-0.113-0.039c-3.55-0.789-8.801-1.189-15.609-1.189
		c-9.388,0-20.152,0.772-28.801,1.393l-2.969,0.214c-0.805,0.08-1.63,0.163-2.395,0.195c0.461-8.771,1.105-16.504,1.775-21.29
		l0.012-0.088l-0.012-0.086c-0.271-1.805-2.495-2.695-3.968-2.539c-1.013,0.106-1.639,0.715-1.608,1.556
		c-0.444,6.886-0.951,14.956-1.359,22.826c-13.255,1.083-20.576,1.946-27.852,3.281c-0.822,0.191-1.254,0.819-1.102,1.594
		c0.258,1.312,2.093,2.733,3.799,2.465c7.922-1.386,15.656-2.032,23.843-2.721l1.146-0.097c-0.282,5.844-0.497,11.911-0.607,17.155
		c-0.098,3.807-0.214,9.696-0.214,16.134c0,14.302,0.428,30.946,1.632,34.778c0.542,1.628,2.403,3.508,3.746,3.508
		c0.099,0,0.195-0.01,0.289-0.031c0.318-0.072,1.042-0.389,0.869-1.719l-0.017-0.083c-1.189-4.3-1.793-13.116-1.793-26.204
		c0-6.663,0.149-13.38,0.28-19.308c0.06-2.664,0.114-5.121,0.146-7.25l0.725-17.371c0.582-0.029,1.131-0.099,1.704-0.172
		l2.094-0.178c8.251-0.657,19.552-1.557,30.103-1.557C201.605,322.938,207.188,323.353,211.502,324.213"/>
	<line fill="none" x1="-26.626" y1="520.506" x2="-26.626" y2="-129.801"/>
	<path fill="#F6A568" d="M192.351,341.489c-5.532-0.905-12.487,4.027-15.891,7.59l0.064-2.511c0-0.941-0.858-2.184-1.934-2.781
		c-0.984-0.492-1.909-0.58-2.475-0.229c-0.333,0.206-0.52,0.54-0.532,0.943c-1.558,14.029-1.252,16.412-0.821,17.426
		c0.425,1.451,2.535,2.57,3.779,2.568c0.101,0,0.196-0.008,0.283-0.021c0.6-0.102,0.967-0.539,0.955-1.12
		c0.115-0.841,0.198-1.498,0.267-2.028c0.174-1.368,0.233-1.829,0.444-2.391c2.394-6.886,10.399-12.925,15.506-13.344l-0.019,0.154
		c-0.073,0.583,0.251,1.126,0.826,1.383c0.736,0.331,1.939,0.209,3.107-1.125c0.368-0.42,0.443-1.014,0.21-1.669
		C195.712,343.176,194.287,341.827,192.351,341.489"/>
	<line fill="none" x1="-26.626" y1="520.506" x2="-26.626" y2="-129.801"/>
	<path fill="#F6A568" d="M206.634,328.057c-0.919-0.353-1.921-0.328-2.506,0.069c-0.32,0.216-0.503,0.53-0.518,0.888l-0.2,1.496
		c-0.066,0.172-0.167,0.441-0.281,0.752c-0.208,0.565-0.626,1.7-0.782,2.01c-0.255,0.256-0.362,0.605-0.295,0.979
		c0.127,0.718,0.877,1.409,1.916,1.769c0.55,0.293,1.23,0.462,1.846,0.462c0.61,0,1.157-0.165,1.44-0.546l0.035-0.052
		c0.252-0.419,0.708-1.599,1.19-2.874c0.105-0.279,0.192-0.502,0.221-0.583c0.359-0.718,0.382-1.517,0.383-1.992
		c0.07-0.277,0.026-0.58-0.125-0.872C208.606,328.893,207.718,328.318,206.634,328.057"/>
	<line fill="none" x1="-26.626" y1="520.506" x2="-26.626" y2="-129.801"/>
	<path fill="#F6A568" d="M248.207,345.822c-2.332-2.018-6.175-2.892-9.14-2.075c-2.236,0.616-5.381,2.153-8.329,5.935
		c0.268-6.082,0.465-10.484,0.652-12.85c0.144-0.999-0.712-2.204-2.011-2.854c-0.854-0.474-1.671-0.581-2.243-0.298
		c-0.373,0.187-0.612,0.523-0.673,0.952c-0.369,2.581-0.634,7.389-0.809,14.993c-4.62,3.784-13.129,9.471-18.347,9.471
		c-1.056,0-2.001-0.29-2.702-0.814c-1.077-0.933,0.461-12.136,1.42-13.425l0.129-0.128l0.036-0.177
		c0.184-0.926-0.716-1.999-2.093-2.5l-0.06-0.019c-0.552-0.139-1.917-0.405-2.695,0.087c-0.225,0.145-0.384,0.338-0.462,0.568
		c-1.149,1.839-1.861,5.153-1.861,8.682c0,4.129,0.938,7.595,2.504,9.267c2.19,2.419,5.173,2.982,7.477,2.982
		c0.196,0,0.389-0.004,0.575-0.012c5.231-0.227,11.81-4.534,15.976-8.474c-0.11,7.275-0.162,16.515-0.162,28.049l0.001,0.032
		c0.096,1.731,0.182,3.498,0.268,5.248c0.203,4.147,0.395,8.065,0.695,11.221c0.168,1.592,1.877,2.751,3.322,2.751
		c0.021,0,0.041,0,0.062,0c0.956-0.024,1.607-0.609,1.659-1.496l0.003-0.06l-0.009-0.06c-0.584-4.178-0.708-8.831-0.839-13.756
		c-0.035-1.318-0.07-2.657-0.115-3.972c0.298-10.335,0.5-17.355,1.508-22.22l0.138,0.087c2.103,1.284,6.775,2.781,10.354,1.327
		c7.046-2.768,7.955-9.27,8.063-10.521C250.792,349.428,249.999,347.372,248.207,345.822 M245.236,350.785
		c-0.579,3.184-3.721,7.461-6.752,7.998c-2.75,0.476-5.111-0.399-6.127-1.542v-0.038c0.503-2.099,4.527-7.464,8.358-9.164
		c1.472-0.654,2.736-0.687,3.758-0.098C245.428,348.51,245.415,349.801,245.236,350.785"/>
	<line fill="none" x1="-26.626" y1="520.506" x2="-26.626" y2="-129.801"/>
	<path fill="#00809A" d="M349.688,198.32H326.02l-33.611,92.244c3.399,0.801,6.666,3.342,7.276,7.412l0.143,0.949l-0.133,0.948
		c-0.119,0.851-0.238,1.803-0.355,2.842h12.31l7.651-20.999h37.105l7.652,20.999h23.668L349.688,198.32z M327.328,259.683
		l10.525-28.885l10.525,28.885H327.328L327.328,259.683z"/>
	<line fill="none" x1="-26.626" y1="520.506" x2="-26.626" y2="-129.801"/>
	<path fill="#F6A568" d="M342.697,324.213c0.635,0.082,1.181-0.073,1.538-0.432c0.239-0.239,0.507-0.682,0.415-1.413l-0.018-0.143
		l-0.079-0.117c-0.449-0.675-1.589-1.853-2.711-2.35l-0.113-0.039c-3.55-0.789-8.801-1.189-15.609-1.189
		c-9.388,0-20.151,0.772-28.8,1.393l-2.969,0.214c-0.806,0.08-1.633,0.163-2.397,0.195c0.46-8.77,1.105-16.503,1.776-21.29
		l0.011-0.088l-0.012-0.086c-0.271-1.805-2.491-2.695-3.968-2.539c-1.013,0.106-1.639,0.716-1.607,1.556
		c-0.445,6.887-0.952,14.956-1.359,22.826c-13.256,1.083-20.577,1.946-27.852,3.281c-0.822,0.191-1.254,0.819-1.103,1.594
		c0.258,1.312,2.094,2.733,3.799,2.465c7.923-1.386,15.657-2.032,23.843-2.721l1.146-0.097c-0.281,5.84-0.497,11.906-0.608,17.155
		c-0.098,3.803-0.213,9.688-0.213,16.134c0,14.302,0.427,30.946,1.632,34.778c0.543,1.628,2.403,3.508,3.747,3.508
		c0.099,0,0.195-0.01,0.289-0.031c0.32-0.072,1.042-0.389,0.87-1.719l-0.017-0.083c-1.189-4.3-1.793-13.116-1.793-26.204
		c0-6.669,0.149-13.393,0.281-19.324c0.059-2.658,0.113-5.109,0.146-7.233l0.724-17.371c0.583-0.029,1.132-0.099,1.704-0.172
		l2.094-0.178c8.252-0.657,19.554-1.557,30.104-1.557C332.8,322.938,338.384,323.353,342.697,324.213"/>
	<line fill="none" x1="-26.626" y1="520.506" x2="-26.626" y2="-129.801"/>
	<path fill="#F6A568" d="M323.547,341.489c-5.532-0.905-12.486,4.027-15.892,7.59l0.063-2.511c0-0.941-0.856-2.184-1.935-2.781
		c-0.983-0.492-1.908-0.58-2.474-0.229c-0.333,0.206-0.52,0.54-0.53,0.943c-1.56,14.03-1.252,16.412-0.821,17.426
		c0.425,1.451,2.533,2.57,3.779,2.568c0.1,0,0.194-0.008,0.282-0.021c0.6-0.102,0.966-0.539,0.954-1.12
		c0.113-0.839,0.2-1.498,0.266-2.027c0.175-1.367,0.235-1.828,0.445-2.392c2.395-6.886,10.398-12.925,15.506-13.344l-0.02,0.154
		c-0.074,0.583,0.251,1.126,0.826,1.383c0.735,0.331,1.94,0.209,3.106-1.125c0.369-0.42,0.443-1.015,0.213-1.671
		C326.906,343.176,325.482,341.827,323.547,341.489"/>
	<line fill="none" x1="-26.626" y1="520.506" x2="-26.626" y2="-129.801"/>
	<path fill="#F6A568" d="M469.498,344.646c-0.484-0.189-1.01-0.011-1.287,0.455c-2.65,4.748-12.756,17.093-19.99,17.093
		c-0.058,0-0.115-0.002-0.174-0.004c-2.693-0.086-4.891-3.966-6.201-10.936c10.85-10.854,14.589-22.848,17.327-31.632
		c1.237-4.202,1.946-8.972,1.946-13.084c0-5.23-1.14-8.948-3.384-11.056c-1.531-1.437-3.553-2.088-6.004-1.93
		c-5.863,0.308-10.006,5.707-13.038,16.99c-1.172,4.332-2.903,15.824-2.903,26.736c0,4.491,0.276,8.483,0.823,11.97
		c-4.083,4.267-11.363,11.555-21.145,11.555c-3.094,0-6.117-2.535-6.974-4.279c3.596-0.334,8.02-2.788,9.459-6.326
		c0.548-1.449,0.327-3.005-0.623-4.38c-1.146-1.661-3.176-2.734-5.195-2.734h-0.002c-3.814,0.156-6.584,2.585-7.982,5.651
		c-2.171,0.289-4.537,0.54-6.83,0.54c-2.035,0-3.996-0.265-5.707-0.771c0.357-1.647-0.044-3.167-1.111-4.126
		c-0.769-0.693-1.722-0.926-2.488-0.607l-0.103,0.055c-1.15,0.769-2.081,2.671-1.47,5.07c-1.568,4.486-4.254,9.856-5.541,10.639
		c-1.72-2.619-2.19-9.985-1.775-13.276c0.264-1.073-0.754-2.335-1.54-2.858l-0.064-0.038c-0.78-0.39-1.605-0.434-2.209-0.117
		c-0.436,0.228-0.724,0.631-0.784,1.063c-0.301,1.403-0.44,2.901-0.44,4.715c0,0.324,0.006,0.646,0.017,0.967
		c-4.257,3.706-11.607,7.665-16.12,6.78c-1.949-0.54-1.952-3.097-1.91-3.838c0.146-1.387,0.681-2.773,1.152-3.994
		c0.186-0.48,0.363-0.942,0.51-1.38c0.149-0.292,0.29-0.835-0.131-1.556c-0.629-1.076-2.239-2.089-3.333-2.063
		c-0.499,0.01-0.893,0.217-1.116,0.592l-1.537,2.08c-2.679-1.121-5.617-1.712-8.527-1.712c-3.938,0-7.695,1.06-10.587,2.987
		c-2.647,1.8-4.104,4.291-4.104,7.009c0,2.467,1.19,4.663,3.48,6.381c1.228,0.782,2.592,1.162,4.166,1.162
		c5.818,0,12.676-5.324,15.446-7.702c1.443,3.331,3.965,5.396,7.687,6.297c4.642,1.105,12.23-2.326,15.083-5.177
		c0.206-0.209,0.397-0.41,0.589-0.609c0.675,2.616,1.78,4.924,3.256,6.693c0.982,0.98,1.926,1.295,2.865,1.295
		c0.822,0,1.644-0.24,2.485-0.489l0.063-0.019c2.87-0.917,5.51-6.273,6.772-10.096c1.42,0.777,3.523,1.158,6.387,1.158
		c2.229,0,4.572-0.271,6.456-0.629c-0.004,0.079-0.012,0.159-0.012,0.239c0,1.041,0.194,2.177,0.564,3.283
		c2.157,6.683,9.827,7.937,15.273,7.937c0.664,0,1.294-0.02,1.88-0.049c6.557-0.381,13.208-4.631,16.782-10.537
		c0.688,2.509,1.565,4.652,2.634,6.412c2.398,3.815,5.787,5.832,9.797,5.832c1.554,0,3.125-0.262,4.668-0.775
		c7.041-2.24,14.509-13.063,15.564-17.637C470.793,345.437,469.903,344.806,469.498,344.646 M456.179,305.683
		c0,3.398-0.616,7.738-1.689,11.912c-2.264,8.855-5.361,19.041-13.477,28.502c-0.255-2.706-0.389-5.508-0.389-8.175
		c0-8.427,1.028-17.537,2.975-26.346c2.058-9.261,4.834-13.69,8.739-13.938c0.074-0.006,0.148-0.008,0.221-0.008
		c0.698,0,1.278,0.226,1.769,0.684C455.54,299.448,456.179,301.998,456.179,305.683 M413.512,348.047
		c-0.178,0.971-2.136,2.778-5.196,4.329c0.489-1.739,2.121-4.128,3.672-4.808c0.271-0.119,0.496-0.165,0.687-0.165
		c0.373,0,0.609,0.179,0.768,0.338C413.493,347.792,413.545,347.862,413.512,348.047 M348.746,349.784
		c-3.727,3.604-9.912,7.413-14.636,8.027c-0.524-0.044-0.922-0.234-1.151-0.55c-0.233-0.318-0.293-0.767-0.169-1.267
		c1.017-4.252,7.295-6.476,12.971-6.476C346.804,349.52,347.845,349.614,348.746,349.784"/>
</g>
<g id="Capa_2">
</g>
</svg>
