<?xml version="1.0" encoding="utf-8"?>
<!-- Generator: Adobe Illustrator 16.0.0, SVG Export Plug-In . SVG Version: 6.00 Build 0)  -->
<!DOCTYPE svg PUBLIC "-//W3C//DTD SVG 1.1//EN" "http://www.w3.org/Graphics/SVG/1.1/DTD/svg11.dtd">
<svg version="1.1" id="Capa_1" xmlns="http://www.w3.org/2000/svg" xmlns:xlink="http://www.w3.org/1999/xlink" x="0px" y="0px"
	 width="481.89px" height="300.47px" viewBox="0 0 481.89 300.47" enable-background="new 0 0 481.89 300.47" xml:space="preserve">
<g>
	<polygon fill="#008099" points="0.027,267.477 112.027,121.477 233.027,60.477 163.027,173.477 	"/>
	<polygon fill="#008099" points="178.375,173.771 248.15,60.79 309.527,115.432 313.027,299.478 	"/>
	<path fill="#008099" d="M415.846,82.548c-0.334,0.82-0.682,1.643-1.039,2.469c-6.582,15.208-16.025,30.009-28.869,45.252
		c-3.4,4.033-6.527,7.488-9.563,10.563c-1.309,1.325-4.029,4.08-8.568,4.08c-4.785,0-7.598-3.087-8.799-4.406
		c-8.061-8.854-15.396-18.121-21.807-27.544c-1.178-1.734-2.311-3.451-3.404-5.156l-9.77,7.671l2,184L481.863,168.74L415.846,82.548
		z"/>
	<path fill="#F5A467" d="M413.453,47.298c-0.092,11.829-3.166,22.986-7.824,33.746c-6.807,15.725-16.34,29.726-27.34,42.781
		c-2.893,3.433-5.877,6.785-9.031,9.982c-1.455,1.474-1.473,1.484-2.855-0.034c-7.584-8.331-14.594-17.117-20.932-26.436
		c-7.572-11.134-14.135-22.798-18.609-35.548c-2.992-8.531-4.805-17.268-4.699-26.371c0.217-18.706,13.672-36.758,31.598-42.144
		c15.754-4.733,30.25-2.155,43.039,8.214c9.625,7.802,15.09,18.08,16.422,30.469c0.074,0.699,0.197,1.396,0.223,2.096
		C413.48,45.134,413.453,46.216,413.453,47.298 M390.383,45.828c0.037-12.582-9.932-22.77-22.361-22.854
		c-12.529-0.085-22.715,10.051-22.742,22.631c-0.025,12.463,10,22.619,22.367,22.66C380.217,68.306,390.346,58.31,390.383,45.828"/>
</g>
</svg>
