<?xml version="1.0" encoding="utf-8"?>
<!-- Generator: Adobe Illustrator 16.0.0, SVG Export Plug-In . SVG Version: 6.00 Build 0)  -->
<!DOCTYPE svg PUBLIC "-//W3C//DTD SVG 1.1//EN" "http://www.w3.org/Graphics/SVG/1.1/DTD/svg11.dtd">
<svg version="1.1" id="Capa_1" xmlns="http://www.w3.org/2000/svg" xmlns:xlink="http://www.w3.org/1999/xlink" x="0px" y="0px"
	 width="481.89px" height="300.47px" viewBox="0 0 481.89 300.47" enable-background="new 0 0 481.89 300.47" xml:space="preserve">
<g>
	<polygon fill="#E6E2E2" points="0.027,267.477 112.027,121.477 233.027,60.477 163.027,173.477 	"/>
	<polygon fill="#E6E2E2" points="178.375,173.771 248.151,60.79 309.527,115.432 313.028,299.478 	"/>
	<path fill="#E6E2E2" d="M415.847,82.548c-0.335,0.819-0.682,1.643-1.04,2.469c-6.582,15.207-16.026,30.009-28.87,45.252
		c-3.398,4.033-6.526,7.488-9.562,10.563c-1.309,1.324-4.028,4.08-8.568,4.08c-4.786,0-7.597-3.088-8.798-4.406
		c-8.062-8.854-15.397-18.121-21.807-27.544c-1.179-1.734-2.312-3.452-3.403-5.156l-9.771,7.671l2,184L481.862,168.74
		L415.847,82.548z"/>
	<path fill="#F5A467" d="M413.453,47.298c-0.092,11.829-3.165,22.986-7.823,33.746c-6.807,15.725-16.34,29.726-27.34,42.781
		c-2.894,3.433-5.877,6.785-9.032,9.982c-1.455,1.474-1.473,1.484-2.854-0.034c-7.585-8.331-14.594-17.117-20.932-26.436
		c-7.572-11.134-14.135-22.798-18.609-35.549c-2.993-8.53-4.805-17.267-4.7-26.37c0.217-18.706,13.672-36.758,31.598-42.144
		c15.755-4.733,30.25-2.155,43.041,8.214c9.622,7.802,15.089,18.08,16.42,30.469c0.075,0.699,0.198,1.396,0.223,2.096
		C413.481,45.134,413.453,46.217,413.453,47.298 M390.383,45.828c0.037-12.582-9.931-22.77-22.36-22.854
		c-12.53-0.085-22.716,10.051-22.742,22.631c-0.026,12.463,9.999,22.619,22.368,22.66C380.217,68.306,390.348,58.31,390.383,45.828"
		/>
</g>
</svg>
