<?xml version="1.0" encoding="utf-8"?>
<!-- Generator: Adobe Illustrator 16.0.0, SVG Export Plug-In . SVG Version: 6.00 Build 0)  -->
<!DOCTYPE svg PUBLIC "-//W3C//DTD SVG 1.1//EN" "http://www.w3.org/Graphics/SVG/1.1/DTD/svg11.dtd">
<svg version="1.1" id="Capa_1" xmlns="http://www.w3.org/2000/svg" xmlns:xlink="http://www.w3.org/1999/xlink" x="0px" y="0px"
	 width="1080px" height="1080px" viewBox="0 0 1080 1080" enable-background="new 0 0 1080 1080" xml:space="preserve">
<rect fill="#00809A" width="1080" height="1080"/>
<polygon fill="#E6E3E3" points="427.082,544.93 427.082,681.402 504.948,681.402 504.948,718.3 426.016,718.3 389.153,718.3 
	389.153,681.402 389.153,544.93 "/>
<polygon fill="#E6E3E3" points="735.947,544.93 793.683,628.731 851.418,544.93 881.719,544.93 881.719,605.883 881.719,718.301 
	847.537,718.301 844.857,718.301 844.857,618.736 793.683,693.018 742.507,618.735 742.507,718.301 739.827,718.301 
	705.646,718.301 705.646,605.883 705.646,544.93 "/>
<g>
	<defs>
		<rect id="SVGID_1_" width="1080" height="1080"/>
	</defs>
	<clipPath id="SVGID_2_">
		<use xlink:href="#SVGID_1_"  overflow="visible"/>
	</clipPath>
	<path clip-path="url(#SVGID_2_)" fill="#E6E3E3" d="M294.087,722.639c0.273-4.406,0.545-8.672,0.804-12.684
		c0.116-6.315,4.996-11.501,11.617-12.202c0.532-0.056,1.077-0.085,1.621-0.085c6.785,0,14.666,4.474,15.909,12.764l0.236,1.576
		l-0.219,1.574c-0.178,1.27-0.355,2.68-0.53,4.205c26.709-8.152,41.55-23.575,41.55-23.575v-47.079v-29.628h-56.983v33.845h22.778
		v25.057c-16.501,9.377-28.704,10.531-40.537,10.53c-27.453,0-54.212-25.526-54.212-55.351c0-29.825,26.759-55.351,54.212-55.352
		c13.464,0,27.404,1.49,47.613,14.893l18.977-28.143c-21.234-15.118-43.824-22.482-66.59-22.521v0.001
		c-47.711,0-92.052,34.877-92.052,91.123c0,56.245,44.341,91.122,92.052,91.122C291.601,722.709,292.848,722.679,294.087,722.639"/>
	<path clip-path="url(#SVGID_2_)" fill="#F6A568" d="M395.473,754.008c1.055,0.133,1.959-0.125,2.555-0.719
		c0.398-0.398,0.841-1.13,0.689-2.347l-0.03-0.235l-0.131-0.195c-0.747-1.122-2.639-3.076-4.502-3.905l-0.19-0.063
		c-5.894-1.31-14.616-1.974-25.923-1.974c-15.591,0-33.467,1.282-47.831,2.313l-4.929,0.354c-1.337,0.133-2.709,0.27-3.98,0.324
		c0.766-14.569,1.836-27.409,2.949-35.358l0.02-0.144l-0.021-0.144c-0.45-2.998-4.142-4.477-6.588-4.218
		c-1.682,0.178-2.722,1.189-2.671,2.585c-0.738,11.437-1.58,24.837-2.257,37.908c-22.014,1.801-34.171,3.233-46.256,5.448
		c-1.364,0.32-2.083,1.361-1.83,2.65c0.428,2.178,3.477,4.538,6.309,4.094c13.159-2.303,26.001-3.379,39.597-4.52l1.902-0.159
		c-0.467,9.704-0.824,19.778-1.008,28.489c-0.163,6.322-0.356,16.104-0.356,26.794c0,23.752,0.711,51.393,2.711,57.757
		c0.901,2.704,3.99,5.827,6.223,5.827c0.164,0,0.324-0.017,0.478-0.052c0.53-0.121,1.732-0.644,1.444-2.853l-0.028-0.138
		c-1.975-7.143-2.977-21.786-2.977-43.522c0-11.063,0.247-22.22,0.464-32.062c0.099-4.425,0.189-8.507,0.244-12.04l1.202-28.85
		c0.968-0.05,1.879-0.165,2.83-0.286l3.478-0.294c13.704-1.093,32.471-2.587,49.995-2.587
		C379.036,751.889,388.308,752.578,395.473,754.008"/>
	<path clip-path="url(#SVGID_2_)" fill="#F6A568" d="M363.669,782.699c-9.189-1.502-20.738,6.688-26.393,12.604l0.107-4.171
		c0-1.563-1.424-3.625-3.212-4.618c-1.635-0.817-3.171-0.961-4.109-0.38c-0.553,0.341-0.865,0.896-0.883,1.566
		c-2.588,23.301-2.079,27.258-1.364,28.941c0.707,2.409,4.209,4.267,6.277,4.266c0.166,0,0.324-0.013,0.47-0.036
		c0.995-0.17,1.606-0.895,1.584-1.86c0.191-1.396,0.331-2.489,0.443-3.368c0.29-2.271,0.388-3.037,0.738-3.972
		c3.977-11.434,17.269-21.465,25.752-22.162l-0.032,0.258c-0.121,0.968,0.417,1.87,1.372,2.298c1.223,0.549,3.222,0.345,5.16-1.87
		c0.611-0.698,0.736-1.683,0.351-2.771C369.249,785.499,366.883,783.259,363.669,782.699"/>
	<path clip-path="url(#SVGID_2_)" fill="#F6A568" d="M387.386,760.391c-1.526-0.588-3.189-0.545-4.161,0.113
		c-0.532,0.36-0.835,0.882-0.86,1.476l-0.33,2.484c-0.111,0.285-0.277,0.735-0.467,1.25c-0.345,0.937-1.04,2.82-1.299,3.335
		c-0.423,0.426-0.601,1.007-0.491,1.626c0.212,1.193,1.458,2.341,3.183,2.939c0.913,0.486,2.043,0.767,3.063,0.767
		c1.015,0,1.922-0.278,2.395-0.909l0.057-0.085c0.418-0.695,1.174-2.655,1.977-4.774c0.175-0.461,0.317-0.834,0.366-0.966
		c0.597-1.195,0.634-2.521,0.637-3.311c0.115-0.458,0.043-0.962-0.209-1.445C390.664,761.778,389.189,760.824,387.386,760.391"/>
	<path clip-path="url(#SVGID_2_)" fill="#F6A568" d="M456.431,789.893c-3.872-3.351-10.255-4.801-15.18-3.447
		c-3.713,1.024-8.936,3.578-13.832,9.858c0.445-10.102,0.77-17.414,1.083-21.34c0.237-1.66-1.184-3.661-3.341-4.739
		c-1.417-0.787-2.773-0.967-3.725-0.496c-0.62,0.309-1.017,0.87-1.119,1.583c-0.612,4.286-1.051,12.27-1.341,24.899
		c-7.673,6.286-21.806,15.727-30.47,15.727c-1.753,0-3.323-0.481-4.487-1.351c-1.788-1.55,0.766-20.155,2.358-22.293l0.214-0.214
		l0.059-0.297c0.306-1.535-1.188-3.318-3.475-4.15l-0.099-0.03c-0.916-0.229-3.184-0.674-4.474,0.145
		c-0.376,0.238-0.639,0.562-0.769,0.944c-1.909,3.055-3.091,8.556-3.091,14.418c0,6.857,1.559,12.613,4.159,15.387
		c3.638,4.021,8.591,4.956,12.416,4.956c0.326,0,0.646-0.007,0.955-0.02c8.688-0.378,19.613-7.533,26.532-14.075
		c-0.184,12.083-0.27,27.426-0.27,46.583l0.002,0.056c0.159,2.873,0.303,5.81,0.445,8.715c0.337,6.888,0.655,13.394,1.154,18.636
		c0.279,2.643,3.118,4.566,5.517,4.566c0.034,0,0.068-0.001,0.102-0.001c1.588-0.037,2.67-1.012,2.756-2.483l0.006-0.099l-0.014-0.1
		c-0.971-6.938-1.176-14.665-1.394-22.844c-0.058-2.191-0.117-4.412-0.192-6.595c0.495-17.165,0.831-28.824,2.506-36.902
		l0.228,0.144c3.493,2.134,11.253,4.618,17.197,2.204c11.701-4.598,13.211-15.392,13.391-17.472
		C460.724,795.883,459.407,792.469,456.431,789.893 M451.497,798.137c-0.961,5.285-6.18,12.389-11.213,13.284
		c-4.566,0.786-8.489-0.664-10.177-2.565v-0.061c0.837-3.486,7.519-12.395,13.883-15.219c2.444-1.086,4.543-1.141,6.24-0.163
		C451.814,794.358,451.793,796.503,451.497,798.137"/>
	<path clip-path="url(#SVGID_2_)" fill="#E6E3E3" d="M624.967,544.929h-39.309l-55.82,153.195c5.645,1.33,11.07,5.549,12.084,12.308
		l0.234,1.576l-0.219,1.574c-0.198,1.412-0.395,2.993-0.588,4.718h20.44l12.709-34.872h61.623L648.83,718.3h39.308L624.967,544.929z
		 M587.832,646.836l17.479-47.97l17.479,47.97H587.832z"/>
	<path clip-path="url(#SVGID_2_)" fill="#F6A568" d="M613.356,754.008c1.054,0.134,1.959-0.125,2.555-0.719
		c0.398-0.398,0.842-1.13,0.688-2.347l-0.028-0.235l-0.132-0.195c-0.748-1.122-2.639-3.076-4.503-3.905l-0.188-0.063
		c-5.895-1.31-14.616-1.974-25.923-1.974c-15.591,0-33.467,1.282-47.829,2.313l-4.931,0.353c-1.337,0.134-2.709,0.271-3.98,0.325
		c0.766-14.565,1.836-27.406,2.949-35.358l0.02-0.144l-0.021-0.144c-0.45-2.999-4.136-4.478-6.589-4.218
		c-1.681,0.178-2.721,1.19-2.67,2.585c-0.738,11.438-1.58,24.837-2.257,37.908c-22.014,1.801-34.172,3.233-46.256,5.448
		c-1.364,0.32-2.083,1.361-1.83,2.65c0.427,2.178,3.477,4.538,6.309,4.094c13.159-2.303,26.001-3.379,39.597-4.52l1.902-0.159
		c-0.466,9.698-0.824,19.771-1.009,28.489c-0.162,6.314-0.355,16.088-0.355,26.794c0,23.752,0.711,51.393,2.711,57.757
		c0.901,2.704,3.99,5.827,6.222,5.827c0.165,0,0.325-0.017,0.479-0.052c0.53-0.121,1.732-0.644,1.444-2.853l-0.028-0.138
		c-1.976-7.143-2.977-21.786-2.977-43.522c0-11.074,0.247-22.24,0.465-32.092c0.098-4.413,0.188-8.484,0.243-12.01l1.202-28.85
		c0.968-0.05,1.879-0.165,2.83-0.286l3.476-0.294c13.704-1.093,32.472-2.587,49.997-2.587
		C596.92,751.889,606.191,752.578,613.356,754.008"/>
	<path clip-path="url(#SVGID_2_)" fill="#F6A568" d="M581.553,782.699c-9.188-1.502-20.738,6.688-26.393,12.604l0.106-4.171
		c0-1.563-1.424-3.625-3.212-4.618c-1.635-0.817-3.171-0.961-4.109-0.38c-0.553,0.341-0.864,0.896-0.883,1.566
		c-2.588,23.303-2.079,27.259-1.364,28.941c0.707,2.409,4.209,4.267,6.277,4.266c0.166,0,0.324-0.013,0.47-0.036
		c0.995-0.17,1.606-0.895,1.583-1.86c0.191-1.395,0.331-2.487,0.443-3.366c0.29-2.272,0.388-3.038,0.739-3.974
		c3.977-11.434,17.269-21.465,25.752-22.162l-0.032,0.258c-0.121,0.968,0.417,1.87,1.371,2.298c1.223,0.549,3.222,0.346,5.161-1.871
		c0.61-0.697,0.734-1.683,0.35-2.771C587.132,785.499,584.766,783.259,581.553,782.699"/>
	<path clip-path="url(#SVGID_2_)" fill="#F6A568" d="M823.941,787.941c-0.804-0.314-1.677-0.016-2.138,0.754
		c-4.401,7.887-21.185,28.388-33.199,28.388c-0.096,0-0.192-0.001-0.288-0.004c-4.474-0.144-8.123-6.588-10.3-18.164
		c18.018-18.024,24.23-37.944,28.778-52.531c2.054-6.981,3.23-14.902,3.23-21.732c0-8.683-1.89-14.858-5.618-18.358
		c-2.543-2.386-5.899-3.467-9.971-3.206c-9.736,0.513-16.618,9.479-21.654,28.217c-1.944,7.194-4.822,26.283-4.822,44.404
		c0,7.459,0.461,14.089,1.37,19.877c-6.784,7.088-18.873,19.19-35.118,19.19c-5.138,0-10.159-4.21-11.582-7.107
		c5.975-0.555,13.32-4.63,15.709-10.508c0.911-2.404,0.544-4.987-1.034-7.272c-1.904-2.759-5.273-4.542-8.628-4.542h-0.002
		c-6.334,0.26-10.936,4.293-13.257,9.387c-3.603,0.481-7.536,0.896-11.344,0.896c-3.381,0-6.636-0.44-9.476-1.278
		c0.59-2.739-0.076-5.261-1.847-6.856c-1.277-1.151-2.861-1.537-4.132-1.007l-0.17,0.091c-1.913,1.275-3.458,4.434-2.442,8.419
		c-2.605,7.451-7.064,16.371-9.204,17.67c-2.854-4.351-3.636-16.584-2.948-22.051c0.439-1.783-1.252-3.877-2.557-4.747l-0.107-0.063
		c-1.296-0.647-2.667-0.721-3.669-0.195c-0.723,0.379-1.201,1.048-1.302,1.767c-0.499,2.33-0.731,4.819-0.731,7.832
		c0,0.538,0.01,1.072,0.028,1.604c-7.071,6.155-19.276,12.729-26.772,11.262c-3.238-0.899-3.244-5.145-3.173-6.377
		c0.242-2.302,1.131-4.604,1.914-6.633c0.308-0.797,0.603-1.564,0.849-2.291c0.247-0.484,0.479-1.387-0.22-2.585
		c-1.043-1.786-3.718-3.464-5.535-3.423c-0.828,0.013-1.484,0.359-1.855,0.981l-2.551,3.453c-4.448-1.86-9.33-2.841-14.161-2.841
		c-6.541,0-12.782,1.76-17.582,4.96c-4.397,2.99-6.819,7.125-6.819,11.641c0,4.097,1.978,7.745,5.781,10.595
		c2.04,1.299,4.304,1.93,6.919,1.93c9.662,0,21.052-8.841,25.653-12.789c2.398,5.532,6.585,8.959,12.763,10.457
		c7.71,1.834,20.314-3.862,25.05-8.599c0.344-0.344,0.663-0.678,0.979-1.01c1.121,4.346,2.957,8.176,5.409,11.115
		c1.629,1.629,3.194,2.152,4.756,2.152c1.367,0,2.729-0.4,4.129-0.813l0.104-0.031c4.766-1.524,9.152-10.421,11.246-16.768
		c2.36,1.293,5.853,1.924,10.609,1.924c3.7,0,7.591-0.448,10.718-1.045c-0.003,0.133-0.017,0.267-0.017,0.399
		c0,1.729,0.324,3.615,0.936,5.453c3.583,11.098,16.323,13.177,25.365,13.177c1.104,0,2.153-0.031,3.122-0.081
		c10.891-0.631,21.937-7.687,27.875-17.496c1.141,4.164,2.597,7.725,4.373,10.647c3.983,6.339,9.609,9.688,16.271,9.688
		c2.577,0,5.189-0.436,7.75-1.288c11.694-3.722,24.097-21.695,25.85-29.292C826.092,789.253,824.615,788.205,823.941,787.941
		 M801.821,723.232c0,5.642-1.022,12.853-2.806,19.786c-3.761,14.703-8.904,31.619-22.381,47.331
		c-0.424-4.495-0.646-9.146-0.646-13.577c0-13.995,1.708-29.124,4.939-43.75c3.418-15.382,8.029-22.738,14.512-23.152
		c0.125-0.008,0.248-0.012,0.368-0.012c1.161,0,2.126,0.374,2.939,1.136C800.758,712.88,801.821,717.112,801.821,723.232
		 M730.961,793.589c-0.294,1.614-3.547,4.613-8.628,7.188c0.812-2.888,3.52-6.855,6.098-7.984c0.447-0.196,0.822-0.272,1.138-0.272
		c0.619,0,1.011,0.295,1.276,0.561C730.93,793.165,731.017,793.282,730.961,793.589 M623.4,796.475
		c-6.188,5.983-16.46,12.309-24.306,13.331c-0.87-0.075-1.53-0.391-1.911-0.913c-0.387-0.532-0.488-1.275-0.281-2.104
		c1.688-7.061,12.115-10.755,21.543-10.755C620.176,796.033,621.904,796.189,623.4,796.475"/>
	<polygon clip-path="url(#SVGID_2_)" fill="#E6E3E3" points="299.083,471.913 411.083,325.913 532.083,264.913 462.083,377.913 	"/>
	<polygon clip-path="url(#SVGID_2_)" fill="#E6E3E3" points="477.43,378.206 547.206,265.225 608.582,319.867 612.083,503.913 	"/>
	<path clip-path="url(#SVGID_2_)" fill="#E6E3E3" d="M714.901,286.983c-0.335,0.82-0.682,1.643-1.04,2.469
		c-6.582,15.208-16.026,30.009-28.87,45.252c-3.398,4.033-6.526,7.488-9.562,10.563c-1.309,1.325-4.028,4.08-8.568,4.08
		c-4.786,0-7.597-3.087-8.798-4.406c-8.062-8.854-15.397-18.121-21.807-27.544c-1.179-1.734-2.312-3.451-3.403-5.156l-9.771,7.671
		l2,184l155.835-130.736L714.901,286.983z"/>
	<path clip-path="url(#SVGID_2_)" fill="#F6A668" d="M712.508,251.734c-0.092,11.829-3.165,22.986-7.823,33.746
		c-6.807,15.725-16.34,29.726-27.34,42.781c-2.894,3.433-5.877,6.785-9.032,9.982c-1.455,1.474-1.473,1.484-2.854-0.034
		c-7.585-8.331-14.594-17.117-20.932-26.436c-7.572-11.134-14.135-22.798-18.609-35.548c-2.993-8.531-4.805-17.268-4.7-26.371
		c0.217-18.706,13.672-36.758,31.598-42.144c15.755-4.733,30.25-2.155,43.041,8.214c9.622,7.802,15.089,18.08,16.42,30.469
		c0.075,0.699,0.198,1.396,0.223,2.096C712.536,249.57,712.508,250.652,712.508,251.734 M689.438,250.264
		c0.037-12.582-9.931-22.77-22.36-22.854c-12.53-0.085-22.716,10.051-22.742,22.631c-0.026,12.463,9.999,22.619,22.368,22.66
		C679.271,272.742,689.402,262.746,689.438,250.264"/>
</g>
</svg>
